<svg width="45" height="71" viewBox="0 0 45 71" fill="none" xmlns="http://www.w3.org/2000/svg">
<path d="M15.165 2.5572C11.31 3.59513 8.49 6.34788 7.335 10.2589C7.02 11.2968 6.99 11.703 6.93 17.6898L6.87 24.0377L6.015 24.3536C3.765 25.1809 2.175 27.0462 1.635 29.5282C1.47 30.2803 1.485 30.4307 1.665 30.5511C1.785 30.6263 3 30.6864 4.365 30.6864H6.87L6.93 45.1572L7.005 59.643L7.335 60.696C7.965 62.6364 8.805 64.0504 10.125 65.3591C11.49 66.728 12.72 67.4951 14.475 68.0968L15.675 68.518H22.575H29.475L30.72 68.0366C32.46 67.3597 33.66 66.5926 34.875 65.3591C36.36 63.8549 37.44 61.8843 37.785 60.0642C37.86 59.6731 37.98 52.889 38.04 45.0068L38.145 30.6864H40.83C42.87 30.6864 43.5 30.6413 43.5 30.4909C43.5 30.4006 43.395 29.8892 43.275 29.3627C43.02 28.2797 42.465 27.1064 41.805 26.279C41.22 25.557 39.84 24.6244 38.865 24.2934L38.145 24.0528L38.055 17.7801C37.965 10.8756 37.935 10.5748 36.975 8.49894C35.76 5.83644 33.495 3.85085 30.345 2.67754C29.505 2.36165 29.19 2.34661 22.875 2.30148C16.71 2.2714 16.2 2.28644 15.165 2.5572ZM27.75 20.2922C30.03 20.6833 31.89 21.2398 33.405 21.9619L34.635 22.5335L34.125 24.1731C33.84 25.0606 33.24 26.8807 32.805 28.2044C32.055 30.4458 31.965 30.6112 31.635 30.5811C31.44 30.5811 30.495 30.4758 29.55 30.3555C28.41 30.2352 26.01 30.16 22.5 30.16C18.99 30.16 16.59 30.2352 15.45 30.3555C14.505 30.4758 13.56 30.5811 13.365 30.5811C13.02 30.6112 12.93 30.4157 11.685 26.625L10.35 22.6388L10.695 22.383C11.655 21.646 15.48 20.5028 18.39 20.0966C20.61 19.7807 25.35 19.886 27.75 20.2922ZM16.05 49.3691C19.38 49.7301 28.245 49.5646 31.23 49.0983C31.725 49.008 31.8 49.0381 32.025 49.4744C32.16 49.7451 32.805 51.5502 33.45 53.4907L34.635 57.0106L34.305 57.2362C33.105 58.0184 30.555 58.8909 28.095 59.3572C26.325 59.6881 20.595 59.8235 18.45 59.5678C15.705 59.2519 11.97 58.1388 10.8 57.3114L10.38 57.0106L11.64 53.2049C12.33 51.129 12.93 49.3239 12.975 49.2036C13.035 49.0532 13.23 49.0231 13.695 49.0983C14.04 49.1434 15.105 49.2638 16.05 49.3691Z" fill="#450404"/>
</svg>
